<svg xmlns="http://www.w3.org/2000/svg" xmlns:xlink="http://www.w3.org/1999/xlink" width="136" zoomAndPan="magnify" viewBox="0 0 102 30.000001" height="40" preserveAspectRatio="xMidYMid meet" version="1.2"><defs/><g id="550961846b"><g style="fill:#ffffff;fill-opacity:1;"><g transform="translate(11.02394, 22.943077)"><path style="stroke:none" d="M 6.6875 -11.984375 C 7.03125 -12.617188 7.523438 -13.117188 8.171875 -13.484375 C 8.828125 -13.859375 9.601562 -14.046875 10.5 -14.046875 C 11.582031 -14.046875 12.554688 -13.757812 13.421875 -13.1875 C 14.296875 -12.625 14.984375 -11.804688 15.484375 -10.734375 C 15.984375 -9.660156 16.234375 -8.394531 16.234375 -6.9375 C 16.234375 -5.476562 15.984375 -4.210938 15.484375 -3.140625 C 14.984375 -2.066406 14.296875 -1.242188 13.421875 -0.671875 C 12.554688 -0.109375 11.582031 0.171875 10.5 0.171875 C 9.601562 0.171875 8.828125 -0.0078125 8.171875 -0.375 C 7.523438 -0.75 7.03125 -1.253906 6.6875 -1.890625 L 6.6875 0 L 1.234375 0 L 1.234375 -18.203125 L 6.6875 -18.203125 Z M 10.703125 -6.9375 C 10.703125 -7.675781 10.507812 -8.25 10.125 -8.65625 C 9.75 -9.0625 9.269531 -9.265625 8.6875 -9.265625 C 8.09375 -9.265625 7.609375 -9.0625 7.234375 -8.65625 C 6.859375 -8.25 6.671875 -7.675781 6.671875 -6.9375 C 6.671875 -6.195312 6.859375 -5.617188 7.234375 -5.203125 C 7.609375 -4.796875 8.09375 -4.59375 8.6875 -4.59375 C 9.269531 -4.59375 9.75 -4.796875 10.125 -5.203125 C 10.507812 -5.617188 10.703125 -6.195312 10.703125 -6.9375 Z M 10.703125 -6.9375 "/></g></g><g style="fill:#ffffff;fill-opacity:1;"><g transform="translate(27.742883, 22.943077)"><path style="stroke:none" d="M 14.65625 -7.0625 C 14.65625 -6.6875 14.628906 -6.320312 14.578125 -5.96875 L 5.796875 -5.96875 C 5.878906 -4.78125 6.378906 -4.1875 7.296875 -4.1875 C 7.890625 -4.1875 8.316406 -4.457031 8.578125 -5 L 14.359375 -5 C 14.160156 -4.007812 13.742188 -3.125 13.109375 -2.34375 C 12.484375 -1.570312 11.691406 -0.957031 10.734375 -0.5 C 9.773438 -0.0507812 8.722656 0.171875 7.578125 0.171875 C 6.203125 0.171875 4.972656 -0.113281 3.890625 -0.6875 C 2.816406 -1.257812 1.976562 -2.082031 1.375 -3.15625 C 0.78125 -4.226562 0.484375 -5.488281 0.484375 -6.9375 C 0.484375 -8.375 0.78125 -9.628906 1.375 -10.703125 C 1.976562 -11.785156 2.816406 -12.613281 3.890625 -13.1875 C 4.972656 -13.757812 6.203125 -14.046875 7.578125 -14.046875 C 8.953125 -14.046875 10.175781 -13.757812 11.25 -13.1875 C 12.320312 -12.625 13.15625 -11.816406 13.75 -10.765625 C 14.351562 -9.722656 14.65625 -8.488281 14.65625 -7.0625 Z M 9.125 -8.359375 C 9.125 -8.816406 8.972656 -9.164062 8.671875 -9.40625 C 8.378906 -9.644531 8.015625 -9.765625 7.578125 -9.765625 C 6.609375 -9.765625 6.039062 -9.296875 5.875 -8.359375 Z M 9.125 -8.359375 "/></g></g><g style="fill:#ffffff;fill-opacity:1;"><g transform="translate(42.888278, 22.943077)"><path style="stroke:none" d="M 9.859375 -4.640625 L 9.859375 0 L 7.796875 0 C 3.992188 0 2.09375 -1.894531 2.09375 -5.6875 L 2.09375 -9.328125 L 0.375 -9.328125 L 0.375 -13.875 L 2.09375 -13.875 L 2.09375 -17.21875 L 7.546875 -17.21875 L 7.546875 -13.875 L 9.8125 -13.875 L 9.8125 -9.328125 L 7.546875 -9.328125 L 7.546875 -5.578125 C 7.546875 -5.253906 7.625 -5.015625 7.78125 -4.859375 C 7.9375 -4.710938 8.195312 -4.640625 8.5625 -4.640625 Z M 9.859375 -4.640625 "/></g></g><g style="fill:#000000;fill-opacity:1;"><g transform="translate(53.619706, 22.943077)"><path style="stroke:none" d="M 10.03125 -4.648438 L 10.03125 0.167969 L 7.796875 0.167969 C 5.847656 0.167969 4.382812 -0.320312 3.398438 -1.300781 C 2.414062 -2.28125 1.921875 -3.742188 1.921875 -5.683594 L 1.921875 -9.324219 L 2.089844 -9.324219 L 2.089844 -9.152344 L 0.199219 -9.152344 L 0.199219 -14.042969 L 2.089844 -14.042969 L 2.089844 -13.871094 L 1.921875 -13.871094 L 1.921875 -17.386719 L 7.71875 -17.386719 L 7.71875 -13.871094 L 7.550781 -13.871094 L 7.550781 -14.042969 L 9.984375 -14.042969 L 9.984375 -9.152344 L 7.550781 -9.152344 L 7.550781 -9.324219 L 7.71875 -9.324219 L 7.71875 -5.582031 C 7.71875 -5.304688 7.78125 -5.105469 7.902344 -4.992188 C 8.023438 -4.875 8.242188 -4.816406 8.558594 -4.816406 L 10.03125 -4.816406 Z M 9.695312 -4.648438 L 9.863281 -4.648438 L 9.863281 -4.480469 L 8.558594 -4.480469 C 8.152344 -4.480469 7.855469 -4.570312 7.667969 -4.746094 C 7.476562 -4.929688 7.382812 -5.207031 7.382812 -5.582031 L 7.382812 -9.492188 L 9.8125 -9.492188 L 9.8125 -9.324219 L 9.644531 -9.324219 L 9.644531 -13.871094 L 9.8125 -13.871094 L 9.8125 -13.703125 L 7.382812 -13.703125 L 7.382812 -17.21875 L 7.550781 -17.21875 L 7.550781 -17.050781 L 2.089844 -17.050781 L 2.089844 -17.21875 L 2.261719 -17.21875 L 2.261719 -13.703125 L 0.367188 -13.703125 L 0.367188 -13.871094 L 0.539062 -13.871094 L 0.539062 -9.324219 L 0.367188 -9.324219 L 0.367188 -9.492188 L 2.261719 -9.492188 L 2.261719 -5.683594 C 2.261719 -3.835938 2.71875 -2.453125 3.636719 -1.539062 C 4.554688 -0.625 5.941406 -0.167969 7.796875 -0.167969 L 9.863281 -0.167969 L 9.863281 0 L 9.695312 0 Z M 9.695312 -4.648438 "/></g></g><g style="fill:#000000;fill-opacity:1;"><g transform="translate(64.348033, 22.943077)"><path style="stroke:none" d="M 14.828125 -7.058594 C 14.828125 -6.675781 14.804688 -6.304688 14.753906 -5.953125 L 14.734375 -5.808594 L 5.804688 -5.808594 L 5.804688 -5.976562 L 5.972656 -5.988281 C 6.011719 -5.425781 6.144531 -5.011719 6.371094 -4.738281 C 6.585938 -4.480469 6.898438 -4.351562 7.304688 -4.351562 C 7.824219 -4.351562 8.199219 -4.589844 8.433594 -5.066406 L 8.480469 -5.164062 L 14.570312 -5.164062 L 14.53125 -4.960938 C 14.328125 -3.949219 13.902344 -3.042969 13.253906 -2.242188 C 12.605469 -1.445312 11.792969 -0.8125 10.808594 -0.351562 C 9.828125 0.109375 8.75 0.339844 7.574219 0.339844 C 6.171875 0.339844 4.917969 0.046875 3.820312 -0.539062 C 2.714844 -1.128906 1.855469 -1.976562 1.242188 -3.078125 C 0.628906 -4.179688 0.324219 -5.464844 0.324219 -6.9375 C 0.324219 -8.410156 0.628906 -9.695312 1.242188 -10.792969 C 1.855469 -11.898438 2.714844 -12.742188 3.820312 -13.332031 C 4.917969 -13.921875 6.171875 -14.214844 7.574219 -14.214844 C 8.980469 -14.214844 10.234375 -13.925781 11.332031 -13.347656 C 12.433594 -12.765625 13.292969 -11.9375 13.910156 -10.859375 C 14.523438 -9.78125 14.828125 -8.515625 14.828125 -7.058594 Z M 14.492188 -7.058594 C 14.492188 -8.457031 14.199219 -9.667969 13.617188 -10.691406 C 13.03125 -11.710938 12.21875 -12.496094 11.175781 -13.046875 C 10.125 -13.601562 8.925781 -13.875 7.574219 -13.875 C 6.226562 -13.875 5.027344 -13.597656 3.976562 -13.035156 C 2.933594 -12.476562 2.121094 -11.675781 1.539062 -10.628906 C 0.953125 -9.582031 0.660156 -8.351562 0.660156 -6.9375 C 0.660156 -5.523438 0.953125 -4.292969 1.539062 -3.242188 C 2.121094 -2.199219 2.933594 -1.394531 3.976562 -0.839844 C 5.027344 -0.277344 6.226562 0.00390625 7.574219 0.00390625 C 8.699219 0.00390625 9.726562 -0.21875 10.664062 -0.65625 C 11.601562 -1.097656 12.375 -1.695312 12.992188 -2.457031 C 13.605469 -3.210938 14.007812 -4.070312 14.199219 -5.027344 L 14.363281 -4.992188 L 14.363281 -4.824219 L 8.585938 -4.824219 L 8.585938 -4.992188 L 8.738281 -4.917969 C 8.445312 -4.316406 7.964844 -4.011719 7.304688 -4.011719 C 6.792969 -4.011719 6.394531 -4.183594 6.113281 -4.523438 C 5.839844 -4.847656 5.679688 -5.332031 5.636719 -5.964844 L 5.625 -6.144531 L 14.585938 -6.144531 L 14.585938 -5.976562 L 14.417969 -6 C 14.46875 -6.335938 14.492188 -6.691406 14.492188 -7.058594 Z M 8.957031 -8.363281 C 8.957031 -8.769531 8.828125 -9.074219 8.578125 -9.277344 C 8.3125 -9.488281 7.980469 -9.597656 7.574219 -9.597656 C 6.703125 -9.597656 6.191406 -9.175781 6.046875 -8.332031 L 5.878906 -8.363281 L 5.878906 -8.53125 L 9.125 -8.53125 L 9.125 -8.363281 Z M 9.292969 -8.195312 L 5.675781 -8.195312 L 5.710938 -8.390625 C 5.894531 -9.421875 6.515625 -9.933594 7.574219 -9.933594 C 8.058594 -9.933594 8.464844 -9.804688 8.789062 -9.539062 C 9.125 -9.269531 9.292969 -8.875 9.292969 -8.363281 Z M 9.292969 -8.195312 "/></g></g><g style="fill:#000000;fill-opacity:1;"><g transform="translate(79.493428, 22.943077)"><path style="stroke:none" d="M 6.550781 -11.410156 C 7.121094 -12.234375 7.820312 -12.894531 8.644531 -13.390625 C 9.476562 -13.890625 10.339844 -14.140625 11.242188 -14.140625 L 11.410156 -14.140625 L 11.410156 -7.972656 L 9.691406 -7.972656 C 8.695312 -7.972656 7.972656 -7.804688 7.515625 -7.464844 C 7.078125 -7.136719 6.859375 -6.542969 6.859375 -5.683594 L 6.859375 0.167969 L 1.0625 0.167969 L 1.0625 -14.042969 L 6.859375 -14.042969 L 6.859375 -11.316406 L 6.691406 -11.316406 Z M 6.519531 -10.773438 L 6.519531 -13.871094 L 6.691406 -13.871094 L 6.691406 -13.703125 L 1.230469 -13.703125 L 1.230469 -13.871094 L 1.398438 -13.871094 L 1.398438 0 L 1.230469 0 L 1.230469 -0.167969 L 6.691406 -0.167969 L 6.691406 0 L 6.519531 0 L 6.519531 -5.683594 C 6.519531 -6.65625 6.785156 -7.339844 7.316406 -7.734375 C 7.828125 -8.121094 8.621094 -8.3125 9.691406 -8.3125 L 11.242188 -8.3125 L 11.242188 -8.140625 L 11.070312 -8.140625 L 11.070312 -13.972656 L 11.242188 -13.972656 L 11.242188 -13.800781 C 10.402344 -13.800781 9.597656 -13.570312 8.820312 -13.101562 C 8.035156 -12.628906 7.375 -12.003906 6.828125 -11.21875 Z M 6.519531 -10.773438 "/></g></g><g style="fill:#00ffff;fill-opacity:1;"><g transform="translate(53.619706, 22.943077)"><path style="stroke:none" d="M 9.859375 -4.640625 L 9.859375 0 L 7.796875 0 C 3.992188 0 2.09375 -1.894531 2.09375 -5.6875 L 2.09375 -9.328125 L 0.375 -9.328125 L 0.375 -13.875 L 2.09375 -13.875 L 2.09375 -17.21875 L 7.546875 -17.21875 L 7.546875 -13.875 L 9.8125 -13.875 L 9.8125 -9.328125 L 7.546875 -9.328125 L 7.546875 -5.578125 C 7.546875 -5.253906 7.625 -5.015625 7.78125 -4.859375 C 7.9375 -4.710938 8.195312 -4.640625 8.5625 -4.640625 Z M 9.859375 -4.640625 "/></g></g><g style="fill:#ffffff;fill-opacity:1;"><g transform="translate(64.348033, 22.943077)"><path style="stroke:none" d="M 14.65625 -7.0625 C 14.65625 -6.6875 14.628906 -6.320312 14.578125 -5.96875 L 5.796875 -5.96875 C 5.878906 -4.78125 6.378906 -4.1875 7.296875 -4.1875 C 7.890625 -4.1875 8.316406 -4.457031 8.578125 -5 L 14.359375 -5 C 14.160156 -4.007812 13.742188 -3.125 13.109375 -2.34375 C 12.484375 -1.570312 11.691406 -0.957031 10.734375 -0.5 C 9.773438 -0.0507812 8.722656 0.171875 7.578125 0.171875 C 6.203125 0.171875 4.972656 -0.113281 3.890625 -0.6875 C 2.816406 -1.257812 1.976562 -2.082031 1.375 -3.15625 C 0.78125 -4.226562 0.484375 -5.488281 0.484375 -6.9375 C 0.484375 -8.375 0.78125 -9.628906 1.375 -10.703125 C 1.976562 -11.785156 2.816406 -12.613281 3.890625 -13.1875 C 4.972656 -13.757812 6.203125 -14.046875 7.578125 -14.046875 C 8.953125 -14.046875 10.175781 -13.757812 11.25 -13.1875 C 12.320312 -12.625 13.15625 -11.816406 13.75 -10.765625 C 14.351562 -9.722656 14.65625 -8.488281 14.65625 -7.0625 Z M 9.125 -8.359375 C 9.125 -8.816406 8.972656 -9.164062 8.671875 -9.40625 C 8.378906 -9.644531 8.015625 -9.765625 7.578125 -9.765625 C 6.609375 -9.765625 6.039062 -9.296875 5.875 -8.359375 Z M 9.125 -8.359375 "/></g></g><g style="fill:#ffffff;fill-opacity:1;"><g transform="translate(79.493428, 22.943077)"><path style="stroke:none" d="M 6.6875 -11.3125 C 7.25 -12.113281 7.929688 -12.753906 8.734375 -13.234375 C 9.535156 -13.722656 10.367188 -13.96875 11.234375 -13.96875 L 11.234375 -8.140625 L 9.6875 -8.140625 C 8.65625 -8.140625 7.894531 -7.957031 7.40625 -7.59375 C 6.925781 -7.238281 6.6875 -6.601562 6.6875 -5.6875 L 6.6875 0 L 1.234375 0 L 1.234375 -13.875 L 6.6875 -13.875 Z M 6.6875 -11.3125 "/></g></g></g></svg>