<svg xmlns="http://www.w3.org/2000/svg" xmlns:xlink="http://www.w3.org/1999/xlink" width="136" zoomAndPan="magnify" viewBox="0 0 102 30.000001" height="40" preserveAspectRatio="xMidYMid meet" version="1.2"><defs><clipPath id="b2ad72b0ff"><path d="M 1.644531 5.613281 L 18.84375 5.613281 L 18.84375 22.8125 L 1.644531 22.8125 Z M 1.644531 5.613281 "/></clipPath><clipPath id="1a97a8f0cf"><path d="M 10.246094 5.613281 C 5.496094 5.613281 1.644531 9.460938 1.644531 14.210938 C 1.644531 18.960938 5.496094 22.8125 10.246094 22.8125 C 14.996094 22.8125 18.84375 18.960938 18.84375 14.210938 C 18.84375 9.460938 14.996094 5.613281 10.246094 5.613281 Z M 10.246094 5.613281 "/></clipPath><clipPath id="b6897db341"><path d="M 6.558594 10.527344 L 13.929688 10.527344 L 13.929688 17.898438 L 6.558594 17.898438 Z M 6.558594 10.527344 "/></clipPath><clipPath id="91d264f2a2"><path d="M 10.246094 10.527344 C 8.210938 10.527344 6.558594 12.175781 6.558594 14.210938 C 6.558594 16.246094 8.210938 17.898438 10.246094 17.898438 C 12.28125 17.898438 13.929688 16.246094 13.929688 14.210938 C 13.929688 12.175781 12.28125 10.527344 10.246094 10.527344 Z M 10.246094 10.527344 "/></clipPath><clipPath id="a96a4b21a3"><path d="M 88 5 L 100.355469 5 L 100.355469 23 L 88 23 Z M 88 5 "/></clipPath><clipPath id="e6236f31f6"><path d="M 57 15 L 61 15 L 61 20 L 57 20 Z M 57 15 "/></clipPath><clipPath id="1d29d4b113"><path d="M 57.023438 18.707031 L 58.828125 15.257812 L 60.191406 15.972656 L 58.386719 19.417969 Z M 57.023438 18.707031 "/></clipPath><clipPath id="67029c2985"><path d="M 57 13 L 60 13 L 60 18 L 57 18 Z M 57 13 "/></clipPath><clipPath id="82813407f3"><path d="M 57.921875 17.039062 L 58.617188 13.535156 L 59.898438 13.789062 L 59.203125 17.292969 Z M 57.921875 17.039062 "/></clipPath><clipPath id="3af36919bf"><path d="M 57 15 L 60 15 L 60 19 L 57 19 Z M 57 15 "/></clipPath><clipPath id="0b229eb1db"><path d="M 57.277344 18.480469 L 58.667969 15.234375 L 59.886719 15.757812 L 58.496094 19 Z M 57.277344 18.480469 "/></clipPath></defs><g id="bc3bd076dc"><g style="fill:#ffffff;fill-opacity:1;"><g transform="translate(13.360099, 22.454689)"><path style="stroke:none" d="M 1.65625 0 L 1.65625 -16.5 L 6.140625 -16.5 L 12.578125 -7.09375 L 12.671875 -7.09375 L 12.671875 -16.5 L 17.3125 -16.5 L 17.3125 0 L 12.765625 0 L 6.4375 -9.234375 L 6.28125 -9.234375 L 6.28125 0 Z M 1.65625 0 "/></g></g><g style="fill:#ffffff;fill-opacity:1;"><g transform="translate(30.197241, 22.454689)"><path style="stroke:none" d="M 1.65625 0 L 1.65625 -16.5 L 14.0625 -16.5 L 14.0625 -12.625 L 6.28125 -12.625 L 6.28125 -10.21875 L 13.578125 -10.21875 L 13.578125 -6.34375 L 6.28125 -6.34375 L 6.28125 -3.875 L 14.78125 -3.875 L 14.78125 0 Z M 1.65625 0 "/></g></g><g clip-rule="nonzero" clip-path="url(#b2ad72b0ff)"><g clip-rule="nonzero" clip-path="url(#1a97a8f0cf)"><path style=" stroke:none;fill-rule:nonzero;fill:#000000;fill-opacity:1;" d="M 1.644531 5.613281 L 18.84375 5.613281 L 18.84375 22.8125 L 1.644531 22.8125 Z M 1.644531 5.613281 "/></g></g><g clip-rule="nonzero" clip-path="url(#b6897db341)"><g clip-rule="nonzero" clip-path="url(#91d264f2a2)"><path style=" stroke:none;fill-rule:nonzero;fill:#ffffff;fill-opacity:1;" d="M 6.558594 10.527344 L 13.929688 10.527344 L 13.929688 17.898438 L 6.558594 17.898438 Z M 6.558594 10.527344 "/></g></g><g style="fill:#ffffff;fill-opacity:1;"><g transform="translate(43.499152, 22.090875)"><path style="stroke:none" d="M 8.890625 0.234375 C 7.765625 0.234375 6.75 0.0351562 5.84375 -0.359375 C 4.9375 -0.753906 4.15625 -1.320312 3.5 -2.0625 C 2.851562 -2.800781 2.359375 -3.691406 2.015625 -4.734375 C 1.671875 -5.785156 1.5 -6.957031 1.5 -8.25 C 1.5 -9.539062 1.671875 -10.707031 2.015625 -11.75 C 2.359375 -12.800781 2.851562 -13.695312 3.5 -14.4375 C 4.15625 -15.1875 4.9375 -15.753906 5.84375 -16.140625 C 6.75 -16.535156 7.765625 -16.734375 8.890625 -16.734375 C 9.921875 -16.734375 10.859375 -16.5625 11.703125 -16.21875 C 12.554688 -15.882812 13.296875 -15.398438 13.921875 -14.765625 C 14.554688 -14.140625 15.066406 -13.378906 15.453125 -12.484375 L 14.109375 -11.734375 C 13.648438 -12.859375 12.972656 -13.722656 12.078125 -14.328125 C 11.191406 -14.941406 10.128906 -15.25 8.890625 -15.25 C 7.992188 -15.25 7.179688 -15.085938 6.453125 -14.765625 C 5.734375 -14.441406 5.113281 -13.972656 4.59375 -13.359375 C 4.082031 -12.742188 3.691406 -12.003906 3.421875 -11.140625 C 3.148438 -10.285156 3.015625 -9.320312 3.015625 -8.25 C 3.015625 -7.1875 3.148438 -6.222656 3.421875 -5.359375 C 3.691406 -4.492188 4.082031 -3.753906 4.59375 -3.140625 C 5.113281 -2.523438 5.734375 -2.054688 6.453125 -1.734375 C 7.179688 -1.410156 7.992188 -1.25 8.890625 -1.25 C 10.128906 -1.25 11.191406 -1.554688 12.078125 -2.171875 C 12.972656 -2.785156 13.648438 -3.648438 14.109375 -4.765625 L 15.453125 -4.015625 C 15.066406 -3.128906 14.554688 -2.367188 13.921875 -1.734375 C 13.296875 -1.097656 12.554688 -0.609375 11.703125 -0.265625 C 10.859375 0.0664062 9.921875 0.234375 8.890625 0.234375 Z M 8.890625 0.234375 "/></g></g><g style="fill:#ffffff;fill-opacity:1;"><g transform="translate(57.112866, 22.090875)"><path style="stroke:none" d="M 8.890625 0.234375 C 7.765625 0.234375 6.75 0.0351562 5.84375 -0.359375 C 4.9375 -0.753906 4.15625 -1.320312 3.5 -2.0625 C 2.851562 -2.800781 2.359375 -3.691406 2.015625 -4.734375 C 1.671875 -5.785156 1.5 -6.957031 1.5 -8.25 C 1.5 -9.539062 1.671875 -10.707031 2.015625 -11.75 C 2.359375 -12.800781 2.851562 -13.695312 3.5 -14.4375 C 4.15625 -15.1875 4.9375 -15.753906 5.84375 -16.140625 C 6.75 -16.535156 7.765625 -16.734375 8.890625 -16.734375 C 10.003906 -16.734375 11.015625 -16.535156 11.921875 -16.140625 C 12.828125 -15.753906 13.597656 -15.1875 14.234375 -14.4375 C 14.878906 -13.695312 15.375 -12.800781 15.71875 -11.75 C 16.0625 -10.707031 16.234375 -9.539062 16.234375 -8.25 C 16.234375 -6.957031 16.0625 -5.785156 15.71875 -4.734375 C 15.375 -3.691406 14.878906 -2.800781 14.234375 -2.0625 C 13.597656 -1.320312 12.828125 -0.753906 11.921875 -0.359375 C 11.015625 0.0351562 10.003906 0.234375 8.890625 0.234375 Z M 8.890625 -1.25 C 9.785156 -1.25 10.59375 -1.410156 11.3125 -1.734375 C 12.03125 -2.054688 12.640625 -2.523438 13.140625 -3.140625 C 13.648438 -3.753906 14.039062 -4.492188 14.3125 -5.359375 C 14.582031 -6.222656 14.71875 -7.1875 14.71875 -8.25 C 14.71875 -9.320312 14.582031 -10.285156 14.3125 -11.140625 C 14.039062 -12.003906 13.648438 -12.742188 13.140625 -13.359375 C 12.640625 -13.972656 12.03125 -14.441406 11.3125 -14.765625 C 10.59375 -15.085938 9.785156 -15.25 8.890625 -15.25 C 7.992188 -15.25 7.179688 -15.085938 6.453125 -14.765625 C 5.734375 -14.441406 5.113281 -13.972656 4.59375 -13.359375 C 4.082031 -12.742188 3.691406 -12.003906 3.421875 -11.140625 C 3.148438 -10.285156 3.015625 -9.320312 3.015625 -8.25 C 3.015625 -7.1875 3.148438 -6.222656 3.421875 -5.359375 C 3.691406 -4.492188 4.082031 -3.753906 4.59375 -3.140625 C 5.113281 -2.523438 5.734375 -2.054688 6.453125 -1.734375 C 7.179688 -1.410156 7.992188 -1.25 8.890625 -1.25 Z M 8.890625 -1.25 "/></g></g><g style="fill:#ffffff;fill-opacity:1;"><g transform="translate(71.869508, 22.090875)"><path style="stroke:none" d="M 2.5625 0 L 2.5625 -16.5 L 7.625 -16.5 C 9.375 -16.5 10.863281 -16.179688 12.09375 -15.546875 C 13.320312 -14.910156 14.253906 -13.96875 14.890625 -12.71875 C 15.535156 -11.476562 15.859375 -9.941406 15.859375 -8.109375 C 15.859375 -6.367188 15.53125 -4.894531 14.875 -3.6875 C 14.226562 -2.476562 13.289062 -1.5625 12.0625 -0.9375 C 10.832031 -0.3125 9.347656 0 7.609375 0 Z M 4.140625 -1.484375 L 7.3125 -1.484375 C 9.644531 -1.484375 11.378906 -2.035156 12.515625 -3.140625 C 13.648438 -4.253906 14.21875 -5.957031 14.21875 -8.25 C 14.21875 -10.550781 13.671875 -12.253906 12.578125 -13.359375 C 11.484375 -14.472656 9.816406 -15.03125 7.578125 -15.03125 L 4.140625 -15.03125 Z M 4.140625 -1.484375 "/></g></g><g clip-rule="nonzero" clip-path="url(#a96a4b21a3)"><g style="fill:#ffffff;fill-opacity:1;"><g transform="translate(86.220926, 22.090875)"><path style="stroke:none" d="M 2.5625 0 L 2.5625 -16.5 L 14.125 -16.5 L 14.125 -15.0625 L 4.140625 -15.0625 L 4.140625 -8.96875 L 13.234375 -8.96875 L 13.234375 -7.53125 L 4.140625 -7.53125 L 4.140625 -1.4375 L 14.375 -1.4375 L 14.375 0 Z M 2.5625 0 "/></g></g></g><g clip-rule="nonzero" clip-path="url(#e6236f31f6)"><g clip-rule="nonzero" clip-path="url(#1d29d4b113)"><path style=" stroke:none;fill-rule:nonzero;fill:#ffffff;fill-opacity:1;" d="M 57.023438 18.707031 L 58.828125 15.257812 L 60.191406 15.972656 L 58.386719 19.417969 Z M 57.023438 18.707031 "/></g></g><g clip-rule="nonzero" clip-path="url(#67029c2985)"><g clip-rule="nonzero" clip-path="url(#82813407f3)"><path style=" stroke:none;fill-rule:nonzero;fill:#ffffff;fill-opacity:1;" d="M 57.921875 17.039062 L 58.617188 13.53125 L 59.898438 13.785156 L 59.203125 17.292969 Z M 57.921875 17.039062 "/></g></g><g clip-rule="nonzero" clip-path="url(#3af36919bf)"><g clip-rule="nonzero" clip-path="url(#0b229eb1db)"><path style=" stroke:none;fill-rule:nonzero;fill:#ffffff;fill-opacity:1;" d="M 57.277344 18.480469 L 58.667969 15.238281 L 59.886719 15.757812 L 58.496094 19 Z M 57.277344 18.480469 "/></g></g></g></svg>